<svg width="26" height="26" viewBox="0 0 26 26" fill="none" xmlns="http://www.w3.org/2000/svg">
<g clip-path="url(#clip0_2_740)">
<path d="M12.2383 13.2285C12.8138 12.7376 13.2666 12.1452 13.5967 11.4512C13.9268 10.7572 14.0918 10.0124 14.0918 9.2168C14.0918 8.45508 13.9479 7.7526 13.6602 7.10938C13.3724 6.44922 12.9873 5.8737 12.5049 5.38281C12.0225 4.89193 11.4512 4.5026 10.791 4.21484C10.1309 3.92708 9.42839 3.7832 8.68359 3.7832C7.92188 3.7832 7.2194 3.92708 6.57617 4.21484C5.91602 4.5026 5.34049 4.89193 4.84961 5.38281C4.35872 5.8737 3.9694 6.44922 3.68164 7.10938C3.39388 7.7526 3.25 8.45508 3.25 9.2168C3.25 10.0124 3.41504 10.7572 3.74512 11.4512C4.0752 12.1452 4.52799 12.7376 5.10352 13.2285C4.3418 13.584 3.64779 14.0326 3.02148 14.5742C2.39518 15.1159 1.86198 15.7253 1.42188 16.4023C0.981771 17.0794 0.634766 17.8158 0.380859 18.6113C0.126953 19.4069 0 20.2448 0 21.125C0 21.4297 0.105794 21.6878 0.317383 21.8994C0.528971 22.111 0.787109 22.2168 1.0918 22.2168C1.39648 22.2168 1.65462 22.111 1.86621 21.8994C2.0778 21.6878 2.18359 21.4297 2.18359 21.125C2.18359 20.2279 2.35286 19.3815 2.69141 18.5859C3.02995 17.8073 3.49121 17.1217 4.0752 16.5293C4.65918 15.9368 5.34896 15.4714 6.14453 15.1328C6.9401 14.7943 7.78646 14.625 8.68359 14.625C9.58073 14.625 10.4186 14.7943 11.1973 15.1328C11.9928 15.4714 12.6826 15.9368 13.2666 16.5293C13.8506 17.1217 14.3203 17.8073 14.6758 18.5859C15.0143 19.3815 15.1836 20.2279 15.1836 21.125C15.1836 21.4297 15.2894 21.6878 15.501 21.8994C15.7126 22.111 15.9622 22.2168 16.25 22.2168C16.5547 22.2168 16.8128 22.111 17.0244 21.8994C17.236 21.6878 17.3418 21.4297 17.3418 21.125C17.3418 20.2448 17.2148 19.4069 16.9609 18.6113C16.724 17.8158 16.3812 17.0794 15.9326 16.4023C15.484 15.7253 14.9551 15.1159 14.3457 14.5742C13.7194 14.0495 13.0423 13.6094 12.3145 13.2539L12.2383 13.2285ZM8.68359 12.4668C7.78646 12.4668 7.02051 12.1494 6.38574 11.5146C5.75098 10.8799 5.43359 10.1139 5.43359 9.2168C5.43359 8.31966 5.75098 7.55371 6.38574 6.91895C7.02051 6.28418 7.78646 5.9668 8.68359 5.9668C9.58073 5.9668 10.3467 6.28418 10.9814 6.91895C11.6162 7.55371 11.9336 8.31966 11.9336 9.2168C11.9336 10.1139 11.6162 10.8799 10.9814 11.5146C10.3467 12.1494 9.58073 12.4668 8.68359 12.4668ZM21.3535 9.90234C21.252 9.80078 21.1377 9.72038 21.0107 9.66113C20.8838 9.60189 20.7441 9.57227 20.5918 9.57227C20.4395 9.57227 20.2998 9.60189 20.1729 9.66113C20.0459 9.72038 19.9316 9.80078 19.8301 9.90234L17.6465 12.0605L16.9863 11.375C16.8848 11.2734 16.7705 11.193 16.6436 11.1338C16.5166 11.0745 16.377 11.0449 16.2246 11.0449C16.0723 11.0449 15.9284 11.0745 15.793 11.1338C15.6576 11.193 15.5391 11.2734 15.4375 11.375C15.3529 11.4766 15.2809 11.5908 15.2217 11.7178C15.1624 11.8447 15.1328 11.9844 15.1328 12.1367C15.1328 12.2891 15.1624 12.4287 15.2217 12.5557C15.2809 12.6826 15.3529 12.7969 15.4375 12.8984L16.9102 14.3457C16.9948 14.4473 17.1048 14.5277 17.2402 14.5869C17.3757 14.6462 17.5195 14.6758 17.6719 14.6758C17.8073 14.6758 17.9427 14.6462 18.0781 14.5869C18.2135 14.5277 18.332 14.4473 18.4336 14.3457L21.3281 11.4512C21.4297 11.3665 21.5143 11.2523 21.582 11.1084C21.6497 10.9645 21.6836 10.8164 21.6836 10.6641C21.6836 10.5117 21.654 10.3678 21.5947 10.2324C21.5355 10.097 21.4551 9.98698 21.3535 9.90234Z" fill="#B88E2F"/>
</g>
<defs>
<clipPath id="clip0_2_740">
<rect width="26" height="26" fill="white" transform="matrix(1 0 0 -1 0 26)"/>
</clipPath>
</defs>
</svg>
