<svg width="26" height="26" viewBox="0 0 26 26" fill="none" xmlns="http://www.w3.org/2000/svg">
<g clip-path="url(#clip0_2_734)">
<path d="M8.98828 12.6953C9.08984 12.7799 9.2041 12.8519 9.33105 12.9111C9.45801 12.9704 9.59766 13 9.75 13C9.90234 13 10.0462 12.9704 10.1816 12.9111C10.3171 12.8519 10.4355 12.7799 10.5371 12.6953L14.8535 8.35352C14.9551 8.25195 15.0355 8.1377 15.0947 8.01074C15.154 7.88379 15.1836 7.74414 15.1836 7.5918C15.1836 7.28711 15.0778 7.02897 14.8662 6.81738C14.6546 6.60579 14.3965 6.5 14.0918 6.5C13.9395 6.5 13.7998 6.52962 13.6729 6.58887C13.5459 6.64811 13.4316 6.72005 13.3301 6.80469L9.75 10.3848L8.35352 8.98828C8.25195 8.88672 8.1377 8.80632 8.01074 8.74707C7.88379 8.68783 7.74414 8.6582 7.5918 8.6582C7.28711 8.6582 7.02897 8.764 6.81738 8.97559C6.60579 9.18717 6.5 9.44531 6.5 9.75C6.5 9.90234 6.52962 10.042 6.58887 10.1689C6.64811 10.2959 6.72852 10.4102 6.83008 10.5117L8.98828 12.6953ZM20.5918 15.1582H19.5V4.3418H20.5918C20.8965 4.3418 21.1546 4.236 21.3662 4.02441C21.5778 3.81283 21.6836 3.55469 21.6836 3.25C21.6836 2.94531 21.5778 2.68717 21.3662 2.47559C21.1546 2.264 20.8965 2.1582 20.5918 2.1582H1.0918C0.787109 2.1582 0.528971 2.264 0.317383 2.47559C0.105794 2.68717 0 2.94531 0 3.25C0 3.55469 0.105794 3.81283 0.317383 4.02441C0.528971 4.236 0.787109 4.3418 1.0918 4.3418H2.18359V15.1582H1.0918C0.787109 15.1582 0.528971 15.264 0.317383 15.4756C0.105794 15.6872 0 15.9453 0 16.25C0 16.5547 0.105794 16.8128 0.317383 17.0244C0.528971 17.236 0.787109 17.3418 1.0918 17.3418H9.75V18.5859L4.82422 21.8359C4.67188 21.9206 4.54915 22.0475 4.45605 22.2168C4.36296 22.3861 4.31641 22.5638 4.31641 22.75C4.31641 23.0547 4.4222 23.3128 4.63379 23.5244C4.84538 23.736 5.10352 23.8418 5.4082 23.8418C5.4082 23.8418 5.41667 23.8418 5.43359 23.8418C5.55208 23.8418 5.65788 23.8249 5.75098 23.791C5.84408 23.7572 5.93294 23.7064 6.01758 23.6387L9.75 21.1758V22.75C9.75 23.0547 9.85579 23.3128 10.0674 23.5244C10.279 23.736 10.5371 23.8418 10.8418 23.8418C11.1465 23.8418 11.4046 23.736 11.6162 23.5244C11.8278 23.3128 11.9336 23.0547 11.9336 22.75V21.1758L15.666 23.6387C15.7507 23.7064 15.8395 23.7572 15.9326 23.791C16.0257 23.8249 16.1315 23.8418 16.25 23.8418C16.5547 23.8418 16.8128 23.736 17.0244 23.5244C17.236 23.3128 17.3418 23.0547 17.3418 22.75C17.3418 22.5638 17.2952 22.3903 17.2021 22.2295C17.109 22.0687 16.9948 21.946 16.8594 21.8613L11.9336 18.6113V17.3418H20.5918C20.8965 17.3418 21.1546 17.236 21.3662 17.0244C21.5778 16.8128 21.6836 16.5547 21.6836 16.25C21.6836 15.9453 21.5778 15.6872 21.3662 15.4756C21.1546 15.264 20.8965 15.1582 20.5918 15.1582ZM17.3418 15.1582H4.3418V4.3418H17.3418V15.1582Z" fill="#B88E2F"/>
</g>
<defs>
<clipPath id="clip0_2_734">
<rect width="26" height="26" fill="white" transform="matrix(1 0 0 -1 0 26)"/>
</clipPath>
</defs>
</svg>
