<svg width="26" height="26" viewBox="0 0 26 26" fill="none" xmlns="http://www.w3.org/2000/svg">
<g clip-path="url(#clip0_2_746)">
<path d="M20.5918 4.3418H17.3418V3.25C17.3418 2.94531 17.236 2.68717 17.0244 2.47559C16.8128 2.264 16.5547 2.1582 16.25 2.1582H5.43359C5.12891 2.1582 4.87077 2.264 4.65918 2.47559C4.44759 2.68717 4.3418 2.94531 4.3418 3.25V4.3418H1.0918C0.787109 4.3418 0.528971 4.44759 0.317383 4.65918C0.105794 4.87077 0 5.12044 0 5.4082V8.6582C0 9.86003 0.423177 10.8841 1.26953 11.7305C2.11589 12.5768 3.13997 13 4.3418 13H6.01758C6.49154 13.5247 7.0459 13.9691 7.68066 14.333C8.31543 14.6969 8.99675 14.9382 9.72461 15.0566H9.75V17.3418H8.68359C7.78646 17.3418 7.02051 17.6592 6.38574 18.2939C5.75098 18.9287 5.43359 19.6947 5.43359 20.5918V22.75C5.43359 23.0547 5.53939 23.3128 5.75098 23.5244C5.96256 23.736 6.21224 23.8418 6.5 23.8418H15.1836C15.4714 23.8418 15.721 23.736 15.9326 23.5244C16.1442 23.3128 16.25 23.0547 16.25 22.75V20.5918C16.25 19.6947 15.9326 18.9287 15.2979 18.2939C14.6631 17.6592 13.8971 17.3418 13 17.3418H11.9336V15.0566C12.6784 14.9382 13.3682 14.6969 14.0029 14.333C14.6377 13.9691 15.1921 13.5247 15.666 13H17.3418C18.5436 13 19.5677 12.5768 20.4141 11.7305C21.2604 10.8841 21.6836 9.86003 21.6836 8.6582V5.4082C21.6836 5.12044 21.5778 4.87077 21.3662 4.65918C21.1546 4.44759 20.8965 4.3418 20.5918 4.3418ZM4.3418 10.8418C3.74935 10.8418 3.24154 10.6302 2.81836 10.207C2.39518 9.78385 2.18359 9.26758 2.18359 8.6582V6.5H4.3418V8.6582C4.3418 9.04753 4.37565 9.42839 4.44336 9.80078C4.51107 10.1732 4.61263 10.5286 4.74805 10.8672L4.72266 10.8418H4.3418ZM13 19.5C13.3047 19.5 13.5628 19.6058 13.7744 19.8174C13.986 20.029 14.0918 20.2871 14.0918 20.5918V21.6582H7.5918V20.5918C7.5918 20.2871 7.69759 20.029 7.90918 19.8174C8.12077 19.6058 8.37891 19.5 8.68359 19.5H13ZM15.1836 8.6582C15.1836 9.86003 14.7604 10.8841 13.9141 11.7305C13.0677 12.5768 12.0436 13 10.8418 13C9.63997 13 8.61589 12.5768 7.76953 11.7305C6.92318 10.8841 6.5 9.86003 6.5 8.6582V4.3418H15.1836V8.6582ZM19.5 8.6582C19.5 9.26758 19.2884 9.78385 18.8652 10.207C18.4421 10.6302 17.9342 10.8418 17.3418 10.8418H16.9609C17.0794 10.5202 17.1725 10.1732 17.2402 9.80078C17.3079 9.42839 17.3418 9.04753 17.3418 8.6582V6.5H19.5V8.6582Z" fill="#B88E2F"/>
</g>
<defs>
<clipPath id="clip0_2_746">
<rect width="26" height="26" fill="white" transform="matrix(1 0 0 -1 0 26)"/>
</clipPath>
</defs>
</svg>
