<svg width="20" height="36" viewBox="0 0 20 36" fill="none" xmlns="http://www.w3.org/2000/svg">
<path d="M8.33984 8.66016C7.19401 8.66016 6.11328 8.88151 5.09766 9.32422C4.08203 9.75391 3.19661 10.3464 2.44141 11.1016C1.6862 11.8568 1.09375 12.7422 0.664062 13.7578C0.221354 14.7734 0 15.8542 0 17C0 18.1458 0.221354 19.2266 0.664062 20.2422C1.09375 21.2578 1.6862 22.1432 2.44141 22.8984C3.19661 23.6536 4.08203 24.2461 5.09766 24.6758C6.11328 25.1185 7.19401 25.3398 8.33984 25.3398C9.48568 25.3398 10.5664 25.1185 11.582 24.6758C12.5977 24.2461 13.4831 23.6536 14.2383 22.8984C14.9935 22.1432 15.5859 21.2578 16.0156 20.2422C16.4583 19.2266 16.6797 18.1458 16.6797 17C16.6797 15.8542 16.4583 14.7734 16.0156 13.7578C15.5859 12.7422 14.9935 11.8568 14.2383 11.1016C13.4831 10.3464 12.5977 9.75391 11.582 9.32422C10.5664 8.88151 9.48568 8.66016 8.33984 8.66016ZM8.33984 10.3398C9.23828 10.3398 10.0814 10.5026 10.8691 10.8281C11.6569 11.1536 12.3438 11.6029 12.9297 12.1758C12.3568 12.5273 11.7415 12.8529 11.084 13.1523C10.4264 13.4518 9.7526 13.7188 9.0625 13.9531L8.90625 13.9922C8.52865 13.3542 8.14128 12.752 7.74414 12.1855C7.34701 11.6191 6.92708 11.0755 6.48438 10.5547L6.52344 10.5938C6.79688 10.5156 7.08659 10.4538 7.39258 10.4082C7.69857 10.3626 8.01432 10.3398 8.33984 10.3398ZM4.92188 11.2969C5.33854 11.7656 5.73893 12.2604 6.12305 12.7812C6.50716 13.3021 6.86849 13.8424 7.20703 14.4023L7.26562 14.5C6.51042 14.6953 5.70964 14.8451 4.86328 14.9492C4.01693 15.0534 3.15104 15.112 2.26562 15.125H1.95312C2.20052 14.3047 2.57812 13.569 3.08594 12.918C3.59375 12.2669 4.19271 11.7331 4.88281 11.3164L4.92188 11.2969ZM3.33984 21.4336C2.81901 20.8477 2.41211 20.1803 2.11914 19.4316C1.82617 18.6829 1.67969 17.8854 1.67969 17.0391C1.67969 17.0391 1.67969 17.0358 1.67969 17.0293C1.67969 17.0228 1.67969 17.013 1.67969 17C1.67969 16.9609 1.67969 16.9219 1.67969 16.8828C1.67969 16.8438 1.67969 16.8047 1.67969 16.7656H2.24609C3.28776 16.7526 4.30664 16.6712 5.30273 16.5215C6.29883 16.3717 7.27214 16.1602 8.22266 15.8867L8.06641 15.9258C8.20964 16.1732 8.3431 16.4303 8.4668 16.6973C8.5905 16.9642 8.71094 17.2344 8.82812 17.5078C8.15104 17.7422 7.51302 18.0319 6.91406 18.377C6.3151 18.722 5.75521 19.1029 5.23438 19.5195L5.25391 19.5L5 19.7148C4.70052 19.9753 4.41406 20.2454 4.14062 20.5254C3.86719 20.8053 3.60677 21.0951 3.35938 21.3945L3.33984 21.4336ZM8.33984 23.6602C8.33984 23.6602 8.33659 23.6602 8.33008 23.6602C8.32357 23.6602 8.32031 23.6602 8.32031 23.6602C7.63021 23.6602 6.9694 23.5592 6.33789 23.3574C5.70638 23.1556 5.1237 22.8724 4.58984 22.5078L4.60938 22.5273C4.81771 22.293 5.0293 22.0684 5.24414 21.8535C5.45898 21.6387 5.67708 21.4271 5.89844 21.2188L5.91797 21.1992L6.17188 20.9844C6.65365 20.5807 7.16797 20.2227 7.71484 19.9102C8.26172 19.5977 8.83464 19.3307 9.43359 19.1094L9.51172 19.0898C9.73307 19.6758 9.94141 20.3073 10.1367 20.9844C10.332 21.6615 10.5013 22.3646 10.6445 23.0938L10.6836 23.25C10.3451 23.3802 9.97721 23.4811 9.58008 23.5527C9.18294 23.6243 8.78255 23.6602 8.37891 23.6602C8.36589 23.6602 8.35612 23.6602 8.34961 23.6602C8.3431 23.6602 8.33984 23.6602 8.33984 23.6602ZM12.207 22.4297C12.0378 21.6875 11.862 20.9974 11.6797 20.3594C11.4974 19.7214 11.2956 19.1029 11.0742 18.5039L11.1328 18.6992H11.4062C11.4193 18.6992 11.429 18.6992 11.4355 18.6992C11.4421 18.6992 11.4518 18.6992 11.4648 18.6992C11.4779 18.6992 11.4876 18.6992 11.4941 18.6992C11.5007 18.6992 11.5104 18.6992 11.5234 18.6992H12.0898C12.5456 18.7122 12.9948 18.7578 13.4375 18.8359C13.8802 18.9141 14.3099 19.0247 14.7266 19.168L14.668 19.1484C14.4336 19.8255 14.1048 20.4408 13.6816 20.9941C13.2585 21.5475 12.7734 22.0195 12.2266 22.4102L12.207 22.4297ZM12.0898 17C11.9987 17 11.9108 17 11.8262 17C11.7415 17 11.6602 17 11.582 17C11.556 17 11.5267 16.9967 11.4941 16.9902C11.4616 16.9837 11.4323 16.9805 11.4062 16.9805C11.3802 16.9805 11.3542 16.9837 11.3281 16.9902C11.3021 16.9967 11.276 17 11.25 17C11.1198 17.013 10.9961 17.026 10.8789 17.0391C10.7617 17.0521 10.651 17.0716 10.5469 17.0977L10.5664 17.0781H10.4883C10.3711 16.8047 10.2474 16.5312 10.1172 16.2578C9.98698 15.9844 9.85677 15.7044 9.72656 15.418C10.5469 15.1315 11.3151 14.819 12.0312 14.4805C12.7474 14.1419 13.4375 13.7708 14.1016 13.3672L14.0039 13.4258C14.3164 13.9206 14.5605 14.4674 14.7363 15.0664C14.9121 15.6654 15 16.2904 15 16.9414C15 16.9544 15 16.9642 15 16.9707C15 16.9772 15 16.987 15 17C15 17.0651 15 17.1335 15 17.2051C15 17.2767 15 17.3516 15 17.4297C14.5833 17.2865 14.1374 17.179 13.6621 17.1074C13.1868 17.0358 12.6953 17 12.1875 17C12.1745 17 12.1582 17 12.1387 17C12.1191 17 12.1029 17 12.0898 17Z" fill="#E94D88"/>
</svg>
