<svg width="20" height="20" viewBox="0 0 20 20" fill="none" xmlns="http://www.w3.org/2000/svg">
<path d="M7.08984 4.43359H8.65234V1.77734C8.3138 1.73828 7.95573 1.70898 7.57812 1.68945C7.20052 1.66992 6.8099 1.66016 6.40625 1.66016C6.40625 1.66016 6.40299 1.66016 6.39648 1.66016C6.38997 1.66016 6.38021 1.66016 6.36719 1.66016C5.23438 1.66016 4.31641 1.9987 3.61328 2.67578C2.91016 3.35286 2.55859 4.32292 2.55859 5.58594V7.77344H0V10.7422H2.55859V18.3398H5.625V10.7422H8.18359L8.55469 7.77344H5.625V5.87891C5.625 5.4362 5.71615 5.08464 5.89844 4.82422C6.08073 4.5638 6.47786 4.43359 7.08984 4.43359Z" fill="#4470CF"/>
</svg>
