<svg width="36" height="36" viewBox="0 0 36 36" fill="none" xmlns="http://www.w3.org/2000/svg">
<g clip-path="url(#clip0_2_968)">
<path d="M8.25049 25.4982C10.7358 25.4982 12.7505 23.4835 12.7505 20.9982C12.7505 18.5129 10.7358 16.4982 8.25049 16.4982C5.76521 16.4982 3.75049 18.5129 3.75049 20.9982C3.75049 23.4835 5.76521 25.4982 8.25049 25.4982Z" fill="#FFE6D0"/>
<path d="M12.375 28.499H4.12453C3.03049 28.5001 1.98163 28.9354 1.20829 29.7093C0.43495 30.4832 0.000372058 31.5323 0 32.6264L0 34.8764C0 35.1747 0.118526 35.4609 0.329505 35.6719C0.540483 35.8828 0.826631 36.0014 1.125 36.0014H15.3745C15.6729 36.0014 15.959 35.8828 16.17 35.6719C16.381 35.4609 16.4995 35.1747 16.4995 34.8764V32.6264C16.4992 31.5323 16.0646 30.4832 15.2912 29.7093C14.5179 28.9354 13.469 28.5001 12.375 28.499Z" fill="#FFE6D0"/>
<path d="M27.7495 25.4982C30.2348 25.4982 32.2495 23.4835 32.2495 20.9982C32.2495 18.5129 30.2348 16.4982 27.7495 16.4982C25.2642 16.4982 23.2495 18.5129 23.2495 20.9982C23.2495 23.4835 25.2642 25.4982 27.7495 25.4982Z" fill="#FFE6D0"/>
<path d="M31.8755 28.499H23.625C22.531 28.5001 21.4821 28.9354 20.7088 29.7093C19.9354 30.4832 19.5009 31.5323 19.5005 32.6264V34.8764C19.5005 35.1747 19.619 35.4609 19.83 35.6719C20.041 35.8828 20.3271 36.0014 20.6255 36.0014H34.875C35.1734 36.0014 35.4595 35.8828 35.6705 35.6719C35.8815 35.4609 36 35.1747 36 34.8764V32.6264C35.9996 31.5323 35.5651 30.4832 34.7917 29.7093C34.0184 28.9354 32.9695 28.5001 31.8755 28.499Z" fill="#FFE6D0"/>
<path d="M21.06 15.2564V16.3364C21.0578 16.78 20.8795 17.2045 20.5644 17.5168C20.2493 17.829 19.8231 18.0033 19.3795 18.0014H16.619C15.809 18.0014 14.9315 17.401 14.9315 16.0664V15.2564H21.06ZM24.75 6.70642C24.7524 7.7017 24.5313 8.68482 24.1029 9.5832C23.6745 10.4816 23.0499 11.2723 22.275 11.8969C21.6788 12.3606 21.2646 13.0191 21.105 13.7574H14.9062C14.7844 13.0437 14.392 12.4045 13.8108 11.9728C12.9909 11.3362 12.332 10.5158 11.8872 9.57786C11.4424 8.6399 11.2241 7.61058 11.25 6.57283C11.3245 3.00236 14.31 0.0478291 17.8945 0.00142282C18.7945 -0.0187202 19.6892 0.143869 20.5245 0.479358C21.3599 0.814847 22.1185 1.31627 22.7545 1.9533C23.3897 2.5706 23.8939 3.30973 24.2368 4.12645C24.5796 4.94316 24.7542 5.82066 24.75 6.70642Z" fill="#B88E2F"/>
</g>
<defs>
<clipPath id="clip0_2_968">
<rect width="36" height="36" fill="white"/>
</clipPath>
</defs>
</svg>
