<svg width="17" height="12" viewBox="0 0 17 12" fill="none" xmlns="http://www.w3.org/2000/svg">
<g clip-path="url(#clip0_2_124)">
<g clip-path="url(#clip1_2_124)">
<g clip-path="url(#clip2_2_124)">
<path d="M16 5H11C10.4477 5 10 5.44772 10 6C10 6.55228 10.4477 7 11 7H16C16.5523 7 17 6.55228 17 6C17 5.44772 16.5523 5 16 5Z" fill="#FFE6D0"/>
<path d="M6 11C8.76142 11 11 8.76142 11 6C11 3.23858 8.76142 1 6 1C3.23858 1 1 3.23858 1 6C1 8.76142 3.23858 11 6 11Z" stroke="#FFE6D0" stroke-width="2"/>
</g>
</g>
</g>
<defs>
<clipPath id="clip0_2_124">
<rect width="17" height="12" fill="white"/>
</clipPath>
<clipPath id="clip1_2_124">
<rect width="17" height="12" fill="white"/>
</clipPath>
<clipPath id="clip2_2_124">
<rect width="17" height="12" fill="white"/>
</clipPath>
</defs>
</svg>
