<svg width="36" height="36" viewBox="0 0 36 36" fill="none" xmlns="http://www.w3.org/2000/svg">
<g clip-path="url(#clip0_2_976)">
<path d="M31.2011 12.7969C30.0199 12.7999 28.8802 12.361 28.0061 11.5664V17.2209H24.1811C24.5296 16.437 24.7084 15.5883 24.7057 14.7305C24.7033 13.7967 24.4933 12.8752 24.0911 12.0325C23.6888 11.1898 23.1042 10.4471 22.3796 9.85812C21.6551 9.26911 20.8087 8.84853 19.9016 8.62681C18.9946 8.40508 18.0496 8.38777 17.135 8.5761C16.2204 8.76444 15.3591 9.15373 14.6135 9.71579C13.8678 10.2779 13.2564 10.9986 12.8236 11.826C12.3907 12.6534 12.1471 13.5666 12.1105 14.4996C12.0739 15.4327 12.2452 16.3622 12.6119 17.2209H7.99659V1.61156C7.99585 1.40031 8.0368 1.19099 8.11708 0.995594C8.19737 0.800195 8.31542 0.622556 8.46447 0.472853C8.61352 0.32315 8.79064 0.204325 8.98569 0.123185C9.18073 0.0420446 9.38987 0.000183687 9.60112 0L26.4016 0C26.827 0.000372371 27.2349 0.16954 27.5358 0.470368C27.8366 0.771195 28.0058 1.1791 28.0061 1.60453V4.42406C28.5858 3.90665 29.2826 3.53785 30.0364 3.3494C30.7902 3.16096 31.5785 3.15853 32.3335 3.34231C33.0885 3.52608 33.7875 3.89057 34.3703 4.4044C34.9532 4.91822 35.4025 5.56599 35.6795 6.29195C35.9565 7.01791 36.053 7.80032 35.9606 8.57182C35.8682 9.34333 35.5897 10.0808 35.1491 10.7208C34.7085 11.3608 34.1189 11.8842 33.4312 12.2458C32.7435 12.6075 31.9781 12.7966 31.2011 12.7969Z" fill="#B88E2F"/>
<path d="M20.0819 25.4883C19.9472 26.1835 19.9681 26.8999 20.143 27.5862C20.3178 28.2724 20.6424 28.9114 21.0933 29.4574C21.5443 30.0034 22.1105 30.4428 22.7513 30.7442C23.3921 31.0456 24.0917 31.2014 24.7999 31.2005C25.9829 31.2036 27.1243 30.7637 27.9991 29.9672V34.3997C27.998 34.8236 27.8292 35.2297 27.5296 35.5296C27.2301 35.8294 26.824 35.9985 26.4002 36H9.60392C9.17984 35.9989 8.77344 35.83 8.47356 35.5301C8.17369 35.2302 8.00473 34.8238 8.00361 34.3997V29.9672C7.4245 30.4876 6.72746 30.8592 5.97267 31.05C5.21787 31.2408 4.42798 31.245 3.67116 31.0624C2.91435 30.8797 2.21335 30.5157 1.62865 30.0016C1.04396 29.4875 0.593132 28.8389 0.315086 28.1117C0.0370399 27.3845 -0.0598759 26.6006 0.0327022 25.8276C0.12528 25.0546 0.404572 24.3157 0.846473 23.6747C1.28837 23.0337 1.87961 22.5099 2.56916 22.1485C3.25871 21.787 4.02586 21.5988 4.80439 21.6C5.98732 21.5976 7.12844 22.0374 8.00361 22.8333V18.7271H15.752C14.8937 18.1569 14.2418 17.3255 13.8927 16.3559C13.5436 15.3864 13.5159 14.3303 13.8137 13.3438C14.1115 12.3573 14.719 11.4929 15.5462 10.8785C16.3735 10.2641 17.3766 9.93231 18.4071 9.93231C19.4375 9.93231 20.4406 10.2641 21.2679 10.8785C22.0951 11.4929 22.7026 12.3573 23.0004 13.3438C23.2982 14.3303 23.2705 15.3864 22.9214 16.3559C22.5723 17.3255 21.9204 18.1569 21.062 18.7271H28.0047V22.8333C27.3736 22.2645 26.6028 21.8736 25.771 21.7006C24.9392 21.5277 24.0764 21.5789 23.2709 21.849C22.4654 22.1191 21.7461 22.5985 21.1868 23.2379C20.6274 23.8774 20.2481 24.654 20.0875 25.4883H20.0819Z" fill="#FFE6D0"/>
</g>
<defs>
<clipPath id="clip0_2_976">
<rect width="36" height="36" fill="white"/>
</clipPath>
</defs>
</svg>
