<svg width="36" height="36" viewBox="0 0 36 36" fill="none" xmlns="http://www.w3.org/2000/svg">
<g clip-path="url(#clip0_2_981)">
<path d="M5.02307 13.8143C5.02307 10.3726 6.39027 7.07188 8.82391 4.63824C11.2575 2.2046 14.5583 0.837402 17.9999 0.837402C21.4416 0.837402 24.7423 2.2046 27.176 4.63824C29.6096 7.07188 30.9768 10.3726 30.9768 13.8143V20.5122C30.9768 20.8453 30.8445 21.1647 30.609 21.4002C30.3735 21.6357 30.0541 21.768 29.721 21.768C29.388 21.768 29.0686 21.6357 28.8331 21.4002C28.5976 21.1647 28.4653 20.8453 28.4653 20.5122V13.8143C28.4653 11.0387 27.3627 8.37681 25.4 6.41418C23.4374 4.45156 20.7755 3.34896 17.9999 3.34896C15.2244 3.34896 12.5625 4.45156 10.5999 6.41418C8.63723 8.37681 7.53463 11.0387 7.53463 13.8143V20.5122C7.53463 20.8453 7.40233 21.1647 7.16682 21.4002C6.93132 21.6357 6.61191 21.768 6.27885 21.768C5.9458 21.768 5.62639 21.6357 5.39088 21.4002C5.15538 21.1647 5.02307 20.8453 5.02307 20.5122V13.8143ZM29.721 22.6047C30.0541 22.6047 30.3735 22.7371 30.609 22.9726C30.8445 23.2081 30.9768 23.5275 30.9768 23.8605V28.8837C30.9768 30.1051 30.4916 31.2765 29.6279 32.1402C28.7642 33.0039 27.5928 33.4891 26.3714 33.4891H21.3482C21.0223 33.4782 20.7133 33.3411 20.4866 33.1066C20.2598 32.8722 20.1331 32.5588 20.1331 32.2326C20.1331 31.9065 20.2598 31.5931 20.4866 31.3587C20.7133 31.1242 21.0223 30.9871 21.3482 30.9762H26.3714C26.6463 30.9763 26.9185 30.9223 27.1726 30.8173C27.4266 30.7122 27.6574 30.5581 27.8519 30.3638C28.0463 30.1694 28.2006 29.9387 28.3058 29.6847C28.4111 29.4308 28.4653 29.1586 28.4653 28.8837V23.8605C28.4653 23.6956 28.4977 23.5323 28.5609 23.38C28.624 23.2276 28.7165 23.0892 28.8331 22.9726C28.9497 22.8559 29.0881 22.7634 29.2405 22.7003C29.3928 22.6372 29.5561 22.6047 29.721 22.6047Z" fill="#FFE6D0"/>
<path d="M15.0693 32.2334C15.0693 31.4561 15.3781 30.7107 15.9277 30.1611C16.4773 29.6115 17.2227 29.3027 18 29.3027H19.6748C20.4408 29.3195 21.1697 29.6356 21.7054 30.1832C22.2412 30.7309 22.5412 31.4665 22.5412 32.2327C22.5412 32.9988 22.2412 33.7345 21.7054 34.2821C21.1697 34.8297 20.4408 35.1458 19.6748 35.1626H18C17.223 35.1626 16.4778 34.854 15.9282 34.3047C15.3786 33.7554 15.0697 33.0104 15.0693 32.2334ZM18 31.8115C17.9405 31.8038 17.88 31.8088 17.8226 31.8263C17.7652 31.8438 17.7122 31.8733 17.6672 31.9129C17.6221 31.9525 17.586 32.0012 17.5613 32.0559C17.5365 32.1106 17.5237 32.1699 17.5237 32.2298C17.5237 32.2898 17.5365 32.3491 17.5613 32.4038C17.586 32.4584 17.6221 32.5072 17.6672 32.5468C17.7122 32.5864 17.7652 32.6159 17.8226 32.6334C17.88 32.6509 17.9405 32.6559 18 32.6482H19.6748C19.7764 32.635 19.8698 32.5853 19.9374 32.5083C20.005 32.4313 20.0423 32.3323 20.0423 32.2298C20.0423 32.1274 20.005 32.0284 19.9374 31.9514C19.8698 31.8744 19.7764 31.8247 19.6748 31.8115H18Z" fill="#FFE6D0"/>
<path d="M4.60406 15.9068C3.99933 15.9068 3.40052 16.0259 2.84184 16.2574C2.28316 16.4889 1.77555 16.8281 1.348 17.2558C0.920457 17.6835 0.581353 18.1912 0.35006 18.7499C0.118767 19.3087 -0.000184493 19.9075 2.1478e-07 20.5123V23.8605C1.57851e-07 25.0818 0.485025 26.253 1.34841 27.1166C2.2118 27.9803 3.38286 28.4656 4.60406 28.466H6.27891C6.44394 28.466 6.60735 28.4335 6.7598 28.3703C6.91225 28.3071 7.05075 28.2145 7.16738 28.0977C7.284 27.981 7.37647 27.8424 7.4395 27.6898C7.50253 27.5373 7.53487 27.3739 7.53469 27.2088V17.1626C7.53469 16.9977 7.50221 16.8344 7.4391 16.682C7.37599 16.5297 7.28349 16.3912 7.16688 16.2746C7.05027 16.158 6.91183 16.0655 6.75947 16.0024C6.60711 15.9393 6.44382 15.9068 6.27891 15.9068H4.60406ZM31.3959 15.9068C32.0007 15.9068 32.5995 16.0259 33.1582 16.2574C33.7168 16.4889 34.2245 16.8281 34.652 17.2558C35.0795 17.6835 35.4186 18.1912 35.6499 18.7499C35.8812 19.3087 36.0002 19.9075 36 20.5123V23.8605C36 25.0818 35.515 26.253 34.6516 27.1166C33.7882 27.9803 32.6171 28.4656 31.3959 28.466H29.7211C29.5561 28.466 29.3927 28.4335 29.2402 28.3703C29.0878 28.3071 28.9493 28.2145 28.8326 28.0977C28.716 27.981 28.6235 27.8424 28.5605 27.6898C28.4975 27.5373 28.4651 27.3739 28.4653 27.2088V17.1626C28.4653 16.9977 28.4978 16.8344 28.5609 16.682C28.624 16.5297 28.7165 16.3912 28.8331 16.2746C28.9497 16.158 29.0882 16.0655 29.2405 16.0024C29.3929 15.9393 29.5562 15.9068 29.7211 15.9068H31.3959Z" fill="#B88E2F"/>
</g>
<defs>
<clipPath id="clip0_2_981">
<rect width="36" height="36" fill="white"/>
</clipPath>
</defs>
</svg>
