<svg width="20" height="36" viewBox="0 0 20 36" fill="none" xmlns="http://www.w3.org/2000/svg">
<path d="M16.6992 11.8242C16.4128 11.9544 16.1035 12.0651 15.7715 12.1562C15.4395 12.2474 15.1042 12.319 14.7656 12.3711H14.7266C15.0781 12.1497 15.3841 11.8796 15.6445 11.5605C15.9049 11.2415 16.1003 10.8867 16.2305 10.4961V10.4766C15.918 10.6589 15.5827 10.8216 15.2246 10.9648C14.8665 11.1081 14.4922 11.2188 14.1016 11.2969L14.0625 11.3164C13.75 10.9779 13.3757 10.7077 12.9395 10.5059C12.5033 10.304 12.0378 10.2031 11.543 10.2031C10.6055 10.2031 9.80143 10.5384 9.13086 11.209C8.46029 11.8796 8.125 12.6836 8.125 13.6211C8.125 13.7643 8.13477 13.9043 8.1543 14.041C8.17383 14.1777 8.19661 14.3112 8.22266 14.4414V14.4219C7.51953 14.3828 6.83594 14.2721 6.17188 14.0898C5.50781 13.9076 4.8763 13.6634 4.27734 13.3574C3.67839 13.0514 3.11849 12.6901 2.59766 12.2734C2.08984 11.8438 1.62109 11.375 1.19141 10.8672V10.8477C1.04818 11.0951 0.934245 11.3652 0.849609 11.6582C0.764974 11.9512 0.722656 12.2539 0.722656 12.5664C0.722656 12.5794 0.722656 12.5859 0.722656 12.5859C0.722656 13.1719 0.859375 13.7122 1.13281 14.207C1.40625 14.7018 1.77083 15.1055 2.22656 15.418H2.24609C1.95964 15.4049 1.68294 15.3626 1.41602 15.291C1.14909 15.2194 0.904948 15.1185 0.683594 14.9883V15.0273C0.696615 15.8477 0.963542 16.5703 1.48438 17.1953C2.00521 17.8203 2.64974 18.2109 3.41797 18.3672H3.4375C3.30729 18.4062 3.16406 18.4388 3.00781 18.4648C2.85156 18.4909 2.6888 18.5039 2.51953 18.5039C2.41536 18.5039 2.30794 18.5007 2.19727 18.4941C2.08659 18.4876 1.97266 18.4714 1.85547 18.4453H1.875C2.10938 19.1354 2.51628 19.6986 3.0957 20.1348C3.67513 20.571 4.33594 20.7956 5.07812 20.8086C4.50521 21.2643 3.85742 21.6224 3.13477 21.8828C2.41211 22.1432 1.65365 22.2799 0.859375 22.293C0.859375 22.293 0.85612 22.293 0.849609 22.293C0.843099 22.293 0.839844 22.293 0.839844 22.293C0.696615 22.293 0.553385 22.2865 0.410156 22.2734C0.266927 22.2604 0.130208 22.2474 0 22.2344H0.0195312C0.761719 22.7161 1.57552 23.0938 2.46094 23.3672C3.34635 23.6406 4.27734 23.7773 5.25391 23.7773C5.25391 23.7773 5.25716 23.7773 5.26367 23.7773C5.27018 23.7773 5.27344 23.7773 5.27344 23.7773C5.28646 23.7773 5.29948 23.7773 5.3125 23.7773C5.32552 23.7773 5.34505 23.7773 5.37109 23.7773C6.69922 23.7773 7.94922 23.5234 9.12109 23.0156C10.293 22.5078 11.3184 21.8177 12.1973 20.9453C13.0762 20.0729 13.763 19.0508 14.2578 17.8789C14.7656 16.707 15.0195 15.4505 15.0195 14.1094C15.0195 14.0964 15.0195 14.0833 15.0195 14.0703C15.0195 14.0573 15.0195 14.0443 15.0195 14.0312V14.0508C15.0195 13.9727 15.0195 13.8978 15.0195 13.8262C15.0195 13.7546 15.0195 13.6797 15.0195 13.6016C15.3451 13.3542 15.6478 13.084 15.9277 12.791C16.2077 12.498 16.4583 12.1888 16.6797 11.8633L16.6992 11.8242Z" fill="#5DAED5"/>
</svg>
